# xmcd CD database file
#
# Track frame offsets:
#	150
#	10880
#	26495
#	40515
#	53793
#	65449
#	83176
#	98966
#	114947
#	132901
#	146773
#
# Disc length: 2129 seconds
#
# Revision: 0
# Processed by: cddbd v1.5.2PL0 Copyright (c) Steve Scherf et al.
# Submitted via: CDex 1.70
#
DISCID=8a084f0b
DTITLE=Hugh and Katy Moffatt - Now And Then
DYEAR=2016
DGENRE=Country
TTITLE0=Ashes Of Love
TTITLE1=Sin City
TTITLE2=Never Say Never
TTITLE3=Every Now And Then
TTITLE4=Singin' The Blues
TTITLE5=Do Right Woman
TTITLE6=Keep Your Lamp Trimmed And Burning
TTITLE7=Makes Me Wonder If I Ever Said Goodbye
TTITLE8=Are You Teasing Me
TTITLE9=Gunga Din
TTITLE10=Vaya Con Dios
EXTD=YEAR: 2016
EXTT0=
EXTT1=
EXTT2=
EXTT3=
EXTT4=
EXTT5=
EXTT6=
EXTT7=
EXTT8=
EXTT9=
EXTT10=
PLAYORDER=
